<?xml version="1.0" encoding="UTF-8" standalone="no"?>
<!DOCTYPE svg PUBLIC "-//W3C//DTD SVG 1.1//EN"
 "http://www.w3.org/Graphics/SVG/1.1/DTD/svg11.dtd">
<!-- Generated by graphviz version 13.0.0 (20250608.1624)
 -->
<!-- Pages: 1 -->
<svg width="135pt" height="220pt"
 viewBox="0.00 0.00 135.00 220.00" xmlns="http://www.w3.org/2000/svg" xmlns:xlink="http://www.w3.org/1999/xlink">
<g id="graph0" class="graph" transform="scale(1 1) rotate(0) translate(4 216.12)">
<polygon fill="white" stroke="none" points="-4,4 -4,-216.12 130.91,-216.12 130.91,4 -4,4"/>
<!-- A -->
<g id="node1" class="node">
<title>A</title>
<polygon fill="lightgray" stroke="black" points="48.24,-212.12 25.49,-212.12 25.49,-193.62 48.24,-193.62 48.24,-212.12"/>
<text xml:space="preserve" text-anchor="middle" x="36.87" y="-199.57" font-family="Times,serif" font-size="9.00">A</text>
</g>
<!-- A XOR B -->
<g id="node3" class="node">
<title>A XOR B</title>
<ellipse fill="lightblue" stroke="black" cx="36.87" cy="-36.77" rx="36.77" ry="36.77"/>
<text xml:space="preserve" text-anchor="middle" x="36.87" y="-33.47" font-family="Times,serif" font-size="9.00">A XOR B</text>
</g>
<!-- A&#45;&gt;A XOR B -->
<g id="edge4" class="edge">
<title>A&#45;&gt;A XOR B</title>
<path fill="none" stroke="red" stroke-width="0.49" d="M27.85,-193.39C19.8,-185.14 8.58,-171.81 3.87,-157.62 -4.79,-131.54 3.33,-101.76 13.67,-78.41"/>
<polygon fill="red" stroke="red" stroke-width="0.49" points="16.78,-80.03 17.89,-69.49 10.45,-77.04 16.78,-80.03"/>
</g>
<!-- 1684 -->
<g id="node4" class="node">
<title>1684</title>
<ellipse fill="white" stroke="black" cx="102.87" cy="-133.58" rx="24.04" ry="24.04"/>
<text xml:space="preserve" text-anchor="middle" x="102.87" y="-130.28" font-family="Times,serif" font-size="9.00">1684</text>
</g>
<!-- A&#45;&gt;1684 -->
<g id="edge7" class="edge">
<title>A&#45;&gt;1684</title>
<path fill="none" stroke="green" stroke-width="0.29" d="M45.23,-193.35C53.73,-184.68 67.3,-170.84 79.14,-158.77"/>
<polygon fill="green" stroke="green" stroke-width="0.29" points="81.41,-161.45 85.92,-151.86 76.42,-156.55 81.41,-161.45"/>
</g>
<!-- 1308 -->
<g id="node5" class="node">
<title>1308</title>
<ellipse fill="white" stroke="black" cx="36.87" cy="-133.58" rx="24.04" ry="24.04"/>
<text xml:space="preserve" text-anchor="middle" x="36.87" y="-130.28" font-family="Times,serif" font-size="9.00">1308</text>
</g>
<!-- A&#45;&gt;1308 -->
<g id="edge1" class="edge">
<title>A&#45;&gt;1308</title>
<path fill="none" stroke="green" stroke-width="0.69" d="M36.87,-193.35C36.87,-187.06 36.87,-178.06 36.87,-168.98"/>
<polygon fill="green" stroke="green" stroke-width="0.69" points="40.37,-169.09 36.87,-159.09 33.37,-169.09 40.37,-169.09"/>
</g>
<!-- B -->
<g id="node2" class="node">
<title>B</title>
<polygon fill="lightgray" stroke="black" points="100.87,-212.12 78.87,-212.12 78.87,-193.62 100.87,-193.62 100.87,-212.12"/>
<text xml:space="preserve" text-anchor="middle" x="89.87" y="-199.57" font-family="Times,serif" font-size="9.00">B</text>
</g>
<!-- B&#45;&gt;1684 -->
<g id="edge5" class="edge">
<title>B&#45;&gt;1684</title>
<path fill="none" stroke="green" stroke-width="0.29" d="M91.51,-193.35C92.79,-186.75 94.64,-177.16 96.48,-167.64"/>
<polygon fill="green" stroke="green" stroke-width="0.29" points="99.9,-168.39 98.36,-157.9 93.03,-167.06 99.9,-168.39"/>
</g>
<!-- B&#45;&gt;1308 -->
<g id="edge3" class="edge">
<title>B&#45;&gt;1308</title>
<path fill="none" stroke="red" stroke-width="0.92" d="M83.16,-193.35C76.91,-185.42 67.27,-173.18 58.39,-161.91"/>
<polygon fill="red" stroke="red" stroke-width="0.92" points="61.32,-159.97 52.38,-154.28 55.82,-164.3 61.32,-159.97"/>
</g>
<!-- 1684&#45;&gt;A XOR B -->
<g id="edge6" class="edge">
<title>1684&#45;&gt;A XOR B</title>
<path fill="none" stroke="green" stroke-width="0.31" d="M89.51,-113.39C81.97,-102.56 72.28,-88.64 63.28,-75.71"/>
<polygon fill="green" stroke="green" stroke-width="0.31" points="66.34,-73.98 57.76,-67.78 60.6,-77.98 66.34,-73.98"/>
</g>
<!-- 1308&#45;&gt;A XOR B -->
<g id="edge2" class="edge">
<title>1308&#45;&gt;A XOR B</title>
<path fill="none" stroke="green" stroke-width="0.45" d="M36.87,-109.14C36.87,-101.58 36.87,-92.91 36.87,-84.28"/>
<polygon fill="green" stroke="green" stroke-width="0.45" points="40.37,-84.54 36.87,-74.54 33.37,-84.54 40.37,-84.54"/>
</g>
</g>
</svg>
